<?xml version="1.0" encoding="utf-8"?>
<!-- Generator: Adobe Illustrator 26.0.1, SVG Export Plug-In . SVG Version: 6.00 Build 0)  -->
<svg version="1.1" id="Layer_1" xmlns="http://www.w3.org/2000/svg" xmlns:xlink="http://www.w3.org/1999/xlink" x="0px" y="0px"
	 viewBox="0 0 495.55 124.42" style="enable-background:new 0 0 495.55 124.42;" xml:space="preserve">
<style type="text/css">
	.st0{fill:#908F9C;}
	.st1{fill:#63636B;}
	.st2{fill:#4ABFA7;}
	.st3{fill:#FFFFFF;}
</style>
<g>
	<path class="st0" d="M62.21,10C33.42,10,10,33.42,10,62.21s23.42,52.21,52.21,52.21S114.42,91,114.42,62.21S91,10,62.21,10z
		 M62.21,110.57c-26.71,0-48.36-21.65-48.36-48.36S35.5,13.84,62.21,13.84s48.36,21.65,48.36,48.36S88.92,110.57,62.21,110.57z"/>
	<path class="st1" d="M145.99,19.24c-0.98-0.99-2.32-1.54-3.71-1.52c-1.46-0.05-2.88,0.5-3.94,1.52c-1.03,1-1.6,2.39-1.56,3.82
		v43.67c-0.07,2.87,2.19,5.25,5.06,5.33c0.09,0,0.19,0,0.28,0c1.41,0.01,2.76-0.53,3.77-1.51l0,0c1.07-0.98,1.67-2.37,1.64-3.82
		V23.05C147.58,21.62,147.02,20.24,145.99,19.24z"/>
	<path class="st1" d="M187.96,34.72L187.96,34.72c-2.07-3.22-5.82-4.85-11.14-4.85c-2.64-0.02-5.24,0.69-7.51,2.05
		c-1.55,0.91-2.97,2.04-4.22,3.34c-0.11-1.17-0.62-2.27-1.44-3.11c-2.07-2.03-5.38-2.03-7.45,0c-0.97,1-1.51,2.35-1.47,3.75v30.86
		c-0.03,1.4,0.5,2.75,1.47,3.74c2.07,2.03,5.38,2.03,7.45,0c0.97-1,1.5-2.35,1.47-3.74V47.62c-0.08-2.17,0.74-4.27,2.26-5.81
		c1.5-1.52,3.61-2.29,6.29-2.29c2.53,0,4.32,0.69,5.32,2.06c1,1.36,1.58,3.47,1.58,6.04v19.13c-0.03,1.4,0.5,2.75,1.47,3.74
		c2.07,2.03,5.38,2.03,7.45,0c0.97-1,1.5-2.35,1.47-3.74V47.62C190.98,42.18,189.96,37.84,187.96,34.72z"/>
	<path class="st1" d="M217.39,62.15c-0.66,0.01-1.31,0.14-1.92,0.4c-0.47,0.15-0.95,0.25-1.45,0.27c-0.64,0.04-1.27-0.16-1.77-0.55
		c-0.43-0.47-0.64-1.11-0.57-1.74V41.02h4.59c1.3,0.03,2.55-0.46,3.49-1.36c0.92-0.88,1.43-2.11,1.41-3.39
		c0.07-2.65-2.02-4.85-4.67-4.91c-0.08,0-0.16,0-0.24,0h-4.59V27.3c0-1.48-0.5-4.86-1.47-5.87c-0.95-1-2.27-1.55-3.65-1.52
		c-1.41-0.03-2.77,0.52-3.76,1.52c-1,1-1.51,4.39-1.51,5.88v4.07h-2.73c-1.3-0.03-2.55,0.46-3.49,1.36
		c-0.92,0.88-1.44,2.11-1.41,3.39c-0.06,2.66,2.05,4.85,4.7,4.91c0.07,0,0.14,0,0.21,0h2.73v19.9c0,4.53,1.18,7.56,3.51,9.01
		c2.22,1.39,4.98,2.09,8.19,2.09c1.89,0.02,3.74-0.49,5.35-1.49c1.68-1.05,2.54-2.4,2.54-4.01c0.04-1.13-0.32-2.23-1.03-3.11
		C219.25,62.65,218.35,62.18,217.39,62.15z"/>
	<path class="st1" d="M259.8,39.36c-1.74-3.07-4.23-5.65-7.23-7.5c-2.9-1.82-6.25-2.79-9.68-2.79c-3.44,0-6.82,0.92-9.78,2.67
		c-3.11,1.85-5.65,4.51-7.36,7.7c-1.91,3.58-2.86,7.58-2.78,11.63c-0.05,3.73,0.85,7.41,2.63,10.69c1.74,3.15,4.33,5.75,7.49,7.49
		c5.75,3,12.47,3.53,18.62,1.47c2.1-0.66,4.07-1.69,5.81-3.04c1.57-1.23,2.36-2.65,2.36-4.22c0-1.18-0.48-2.31-1.33-3.12
		c-1.52-1.52-3.64-1.79-6.1-0.55c-0.25,0.15-0.72,0.44-1.4,0.86c-0.81,0.48-1.67,0.85-2.57,1.12c-1.48,0.41-3.02,0.59-4.56,0.55
		c-2.47,0.02-4.87-0.81-6.81-2.35c-1.81-1.42-3.09-3.4-3.65-5.63h23.75c1.32,0.02,2.59-0.44,3.6-1.29c1.04-0.85,1.66-2.12,1.68-3.46
		C262.53,46.01,261.59,42.48,259.8,39.36z M242.88,38.71c2.13-0.02,4.2,0.72,5.84,2.08c1.51,1.11,2.51,2.78,2.78,4.63h-17.95
		c1.16-4.51,4.22-6.71,9.35-6.71C242.9,38.71,242.88,38.71,242.88,38.71z"/>
	<path class="st1" d="M292.39,31.31L292.39,31.31c-1.19-0.97-2.69-1.48-4.23-1.44c-2.5-0.01-4.96,0.57-7.19,1.69
		c-1.54,0.76-2.91,1.84-4.01,3.16c-0.19-0.97-0.67-1.87-1.36-2.58c-2.07-2.03-5.38-2.03-7.45,0c-0.97,1-1.51,2.35-1.47,3.75v30.86
		c-0.03,1.4,0.5,2.75,1.47,3.74c2.07,2.03,5.38,2.03,7.45,0c0.97-1,1.5-2.35,1.47-3.74V49.04c-0.04-1.88,0.33-3.74,1.09-5.46
		c0.58-1.34,1.52-2.49,2.7-3.34c0.98-0.7,2.14-1.08,3.34-1.09c0.5,0,1,0.07,1.48,0.2c0.51,0.14,0.84,0.24,0.96,0.28
		c2.6,0.96,4.6,0.69,6.12-0.79c0.94-0.91,1.41-2.25,1.41-3.98C294.17,33.46,293.51,32.15,292.39,31.31z"/>
	<path class="st1" d="M340.15,43.85L340.15,43.85c-0.96-0.99-2.29-1.54-3.67-1.5h-12.06c-1.37-0.03-2.7,0.49-3.69,1.45
		c-2,2.04-2,5.3,0,7.34c0.98,0.96,2.31,1.49,3.69,1.45h6.21v8.35c-1.16,0.34-2.33,0.6-3.53,0.78c-1.42,0.23-2.86,0.35-4.31,0.36
		c-2.93,0.02-5.81-0.78-8.32-2.29c-8.1-4.87-10.71-15.39-5.84-23.49c1.44-2.39,3.44-4.4,5.84-5.84c2.51-1.51,5.39-2.3,8.32-2.29
		c2.73,0,5.44,0.56,7.95,1.64c2.57,1.15,4.71,0.75,6.22-0.94c0.91-1,1.41-2.31,1.4-3.67c0.01-1.78-0.99-3.42-2.58-4.23
		c-3.67-2.01-8.04-3.03-12.99-3.03c-4.85-0.03-9.61,1.24-13.81,3.66c-4.15,2.37-7.61,5.77-10.04,9.88c-4.95,8.42-4.95,18.87,0,27.29
		c4.99,8.42,14.06,13.57,23.85,13.55c5.73,0.03,11.34-1.58,16.19-4.63c1.65-0.92,2.66-2.68,2.61-4.57V47.54
		C341.63,46.17,341.11,44.84,340.15,43.85z"/>
	<path class="st1" d="M372.09,31.31L372.09,31.31c-1.19-0.97-2.69-1.48-4.23-1.44c-2.5-0.01-4.96,0.57-7.19,1.69
		c-1.54,0.76-2.91,1.84-4.01,3.16c-0.19-0.97-0.67-1.87-1.36-2.58c-2.07-2.03-5.38-2.03-7.45,0c-0.97,1-1.51,2.35-1.47,3.75v30.86
		c-0.03,1.4,0.5,2.75,1.47,3.74c2.07,2.03,5.38,2.03,7.45,0c0.97-1,1.5-2.35,1.47-3.74V49.04c-0.04-1.88,0.33-3.74,1.09-5.46
		c0.58-1.34,1.52-2.49,2.7-3.34c0.98-0.7,2.14-1.08,3.34-1.09c0.5,0,1,0.07,1.48,0.2c0.51,0.14,0.84,0.24,0.96,0.28
		c2.6,0.96,4.6,0.69,6.12-0.79c0.94-0.91,1.41-2.25,1.41-3.98C373.87,33.46,373.21,32.15,372.09,31.31z"/>
	<path class="st1" d="M409.88,39.36c-1.74-3.07-4.22-5.65-7.23-7.5c-2.9-1.82-6.25-2.79-9.67-2.79c-3.44,0-6.82,0.92-9.78,2.67
		c-3.11,1.85-5.65,4.51-7.36,7.7c-1.9,3.58-2.86,7.58-2.78,11.63c-0.05,3.73,0.85,7.41,2.63,10.69c1.74,3.15,4.33,5.75,7.48,7.49
		c5.75,3,12.47,3.53,18.62,1.47c2.1-0.66,4.07-1.69,5.81-3.04c1.57-1.23,2.37-2.65,2.37-4.22c0-1.18-0.48-2.31-1.33-3.12
		c-1.53-1.52-3.64-1.79-6.1-0.55c-0.25,0.15-0.72,0.44-1.4,0.86c-0.81,0.48-1.67,0.85-2.57,1.12c-1.49,0.41-3.02,0.59-4.56,0.55
		c-2.47,0.02-4.87-0.81-6.81-2.35c-1.82-1.42-3.1-3.41-3.66-5.65h23.76c1.32,0.02,2.59-0.44,3.6-1.29c1.04-0.85,1.66-2.12,1.68-3.46
		C412.6,46,411.67,42.47,409.88,39.36z M392.96,38.71c2.13-0.01,4.19,0.72,5.82,2.08c1.51,1.11,2.51,2.78,2.78,4.63h-17.93
		c1.16-4.51,4.22-6.71,9.35-6.71C392.98,38.71,392.96,38.71,392.96,38.71z"/>
	<path class="st1" d="M453.64,31.67c-0.96-0.96-2.27-1.48-3.62-1.44c-2.33-0.05-4.38,1.55-4.91,3.82c-1.34-1.02-2.81-1.86-4.37-2.5
		c-2.16-0.89-4.48-1.34-6.81-1.33c-3.29-0.02-6.51,0.91-9.28,2.69c-2.84,1.84-5.13,4.43-6.61,7.47c-1.64,3.35-2.46,7.03-2.4,10.75
		c-0.06,3.72,0.78,7.4,2.44,10.72c1.52,3.03,3.83,5.6,6.68,7.43c2.83,1.79,6.12,2.72,9.47,2.69c2.36,0,4.7-0.53,6.82-1.56
		c1.51-0.7,2.9-1.62,4.14-2.73c0.23,0.8,0.65,1.54,1.24,2.13c0.94,0.96,2.24,1.49,3.59,1.45c1.36,0.04,2.68-0.5,3.63-1.48
		c0.95-0.97,1.46-2.29,1.43-3.65V35.34C455.13,33.97,454.6,32.64,453.64,31.67z M445.33,51.14c0,3.3-0.95,6.08-2.82,8.24
		c-3.53,3.96-9.59,4.31-13.55,0.78c-0.27-0.24-0.54-0.51-0.78-0.78c-1.84-2.18-2.78-4.94-2.78-8.24s0.95-6.09,2.82-8.28
		c3.44-3.95,9.43-4.35,13.38-0.91c0.32,0.28,0.63,0.59,0.91,0.91c1.87,2.17,2.82,4.96,2.82,8.26L445.33,51.14L445.33,51.14z"/>
	<path class="st1" d="M481.74,62.15c-0.66,0.01-1.31,0.14-1.92,0.4c-0.47,0.15-0.95,0.25-1.45,0.27c-0.64,0.04-1.27-0.15-1.77-0.55
		c-0.42-0.48-0.62-1.11-0.55-1.74V41.02h4.59c1.3,0.03,2.55-0.46,3.48-1.36c0.93-0.88,1.44-2.11,1.41-3.39
		c0.07-2.65-2.02-4.85-4.67-4.91c-0.08,0-0.16,0-0.24,0h-4.59v-6.18c0.03-1.4-0.5-2.75-1.47-3.75c-0.95-1-2.27-1.55-3.65-1.52
		c-2.86-0.05-5.22,2.23-5.27,5.1c0,0.06,0,0.12,0,0.18v6.19h-2.73c-1.3-0.03-2.55,0.46-3.48,1.36c-0.93,0.88-1.44,2.11-1.41,3.39
		c-0.06,2.66,2.05,4.85,4.7,4.91c0.07,0,0.14,0,0.21,0h2.73v19.9c0,4.53,1.18,7.56,3.52,9.01c2.22,1.39,4.97,2.09,8.19,2.09
		c1.89,0.02,3.75-0.49,5.35-1.49c1.69-1.05,2.54-2.4,2.54-4.01c0.05-1.13-0.32-2.23-1.03-3.11
		C483.63,62.64,482.72,62.17,481.74,62.15z"/>
	<path class="st0" d="M150.47,105.23c0.26,0.26,0.41,0.62,0.4,0.99c0.02,0.37-0.13,0.72-0.4,0.97c-0.28,0.26-0.66,0.39-1.04,0.38
		H139c-0.79,0-1.44-0.64-1.44-1.43v-0.01V87.99c0-0.79,0.64-1.44,1.43-1.44H139h10.45c0.38-0.01,0.76,0.13,1.04,0.39
		c0.27,0.27,0.42,0.64,0.4,1.02c0.01,0.37-0.13,0.72-0.4,0.97c-0.28,0.26-0.66,0.39-1.04,0.38h-8.92v6.12h7.57
		c0.38-0.01,0.76,0.13,1.04,0.39c0.27,0.26,0.41,0.62,0.4,0.99c0.02,0.37-0.13,0.74-0.4,0.99c-0.29,0.25-0.66,0.37-1.04,0.36h-7.57
		v6.64h8.91C149.82,104.8,150.2,104.95,150.47,105.23z"/>
	<path class="st0" d="M173.43,87.97c1.35,0.95,2.4,2.27,3.03,3.79c1.36,3.41,1.36,7.22,0,10.63c-0.63,1.53-1.68,2.84-3.03,3.78
		c-1.43,0.96-3.12,1.45-4.84,1.4h-7.39c-0.79,0-1.44-0.64-1.44-1.43v-0.01V87.99c0-0.79,0.64-1.44,1.43-1.44h0.01h7.39
		C170.31,86.5,172.01,87,173.43,87.97z M172.88,102.63c2.05-3.42,2.05-7.7,0-11.12c-1.03-1.46-2.56-2.18-4.58-2.18h-5.56v15.49h5.55
		C170.34,104.81,171.87,104.09,172.88,102.63L172.88,102.63z"/>
	<path class="st0" d="M202.32,86.93c0.26,0.28,0.39,0.66,0.38,1.04V99.5c0.02,1.49-0.34,2.96-1.05,4.26
		c-0.67,1.23-1.67,2.26-2.89,2.95c-1.26,0.73-2.7,1.11-4.16,1.09c-1.47,0.02-2.92-0.36-4.2-1.09c-1.23-0.69-2.24-1.72-2.91-2.95
		c-0.71-1.31-1.07-2.78-1.05-4.26V87.97c-0.01-0.39,0.14-0.77,0.42-1.04c0.29-0.28,0.69-0.42,1.09-0.4c0.38,0,0.74,0.15,1,0.42
		c0.28,0.26,0.44,0.63,0.44,1.02V99.5c-0.01,0.98,0.23,1.95,0.72,2.81c0.46,0.81,1.12,1.47,1.92,1.94c0.78,0.45,1.68,0.69,2.58,0.69
		c0.93,0.01,1.85-0.23,2.67-0.69c0.82-0.46,1.5-1.13,1.97-1.94c0.49-0.85,0.75-1.82,0.73-2.81V87.97c-0.02-0.38,0.11-0.75,0.36-1.04
		c0.25-0.28,0.62-0.42,0.99-0.4C201.7,86.51,202.07,86.66,202.32,86.93z"/>
	<path class="st0" d="M228.46,88.98c0,0.36-0.13,0.71-0.36,0.99c-0.23,0.32-0.6,0.5-0.99,0.48c-0.28,0-0.56-0.07-0.81-0.21
		c-1.22-0.7-2.61-1.06-4.02-1.05c-1.39-0.03-2.76,0.32-3.98,0.99c-1.14,0.65-2.07,1.61-2.69,2.77c-0.66,1.27-0.99,2.67-0.96,4.1
		c-0.04,1.49,0.3,2.97,0.99,4.3c0.63,1.16,1.57,2.1,2.73,2.73c1.2,0.64,2.54,0.96,3.9,0.94c1.42,0.02,2.81-0.36,4.02-1.09
		c0.24-0.12,0.51-0.18,0.78-0.18c0.41-0.01,0.81,0.18,1.05,0.51c0.23,0.27,0.36,0.61,0.36,0.96c0,0.24-0.07,0.47-0.2,0.67
		c-0.13,0.21-0.32,0.38-0.55,0.5c-0.83,0.46-1.71,0.81-2.63,1.05c-0.93,0.25-1.9,0.38-2.87,0.39c-1.87,0.02-3.71-0.43-5.36-1.29
		c-1.63-0.86-2.98-2.16-3.9-3.76c-1-1.75-1.51-3.75-1.46-5.76c-0.02-1.91,0.46-3.79,1.39-5.46c0.91-1.59,2.23-2.91,3.82-3.82
		c3.41-1.86,7.53-1.84,10.92,0.05C228.15,88,228.46,88.46,228.46,88.98z"/>
	<path class="st0" d="M253.26,106.28c0.01,0.75-0.59,1.37-1.34,1.38h-0.01c-0.28,0-0.55-0.09-0.77-0.26
		c-0.24-0.18-0.43-0.43-0.55-0.7l-1.87-4.42h-9.28l-1.83,4.44c-0.09,0.28-0.26,0.52-0.5,0.69c-0.22,0.16-0.49,0.24-0.76,0.24
		c-0.35,0.02-0.7-0.1-0.96-0.33c-0.22-0.24-0.33-0.56-0.32-0.88c0.01-0.16,0.03-0.32,0.06-0.48l7.64-18.56
		c0.12-0.3,0.32-0.55,0.58-0.74c0.25-0.17,0.56-0.24,0.86-0.19c0.29-0.01,0.57,0.08,0.81,0.24c0.24,0.16,0.42,0.41,0.51,0.69
		l7.64,18.31C253.24,105.91,253.26,106.09,253.26,106.28z M240.59,99.56h7l-3.52-8.39L240.59,99.56z"/>
	<path class="st0" d="M274.56,86.93c0.27,0.26,0.42,0.63,0.4,1c0.02,0.37-0.13,0.74-0.4,0.99c-0.29,0.25-0.66,0.37-1.04,0.36h-5.34
		v16.84c0,0.39-0.15,0.76-0.44,1.02c-0.62,0.56-1.56,0.56-2.18,0c-0.29-0.26-0.44-0.63-0.44-1.02V89.29h-5.32
		c-0.38,0.01-0.75-0.12-1.04-0.38c-0.27-0.26-0.42-0.63-0.4-1c-0.01-0.37,0.13-0.73,0.4-0.98c0.28-0.26,0.66-0.39,1.04-0.38h13.72
		C273.91,86.54,274.28,86.67,274.56,86.93z"/>
	<path class="st0" d="M286.04,107.15c-0.28,0.27-0.66,0.42-1.05,0.42c-0.41,0.02-0.8-0.13-1.09-0.42c-0.27-0.28-0.42-0.66-0.4-1.05
		V87.99c0-0.38,0.15-0.75,0.42-1.02c0.29-0.28,0.69-0.44,1.09-0.42c0.39,0,0.76,0.15,1.04,0.42c0.28,0.26,0.44,0.63,0.44,1.02v18.11
		C286.5,106.5,286.33,106.88,286.04,107.15z"/>
	<path class="st0" d="M314.37,102.56c-0.83,1.6-2.08,2.94-3.61,3.89c-3.22,1.9-7.22,1.9-10.45,0c-1.54-0.94-2.79-2.29-3.62-3.89
		c-1.74-3.46-1.74-7.53,0-10.99c0.83-1.6,2.08-2.95,3.62-3.89c3.22-1.9,7.22-1.9,10.45,0c1.53,0.95,2.78,2.29,3.61,3.89
		C316.11,95.02,316.11,99.1,314.37,102.56z M311.68,93c-0.56-1.16-1.42-2.15-2.51-2.85c-2.24-1.37-5.06-1.37-7.3,0
		c-1.08,0.69-1.95,1.67-2.51,2.83c-0.62,1.28-0.92,2.68-0.9,4.1c-0.02,1.41,0.29,2.8,0.9,4.07c0.56,1.16,1.42,2.15,2.51,2.85
		c2.24,1.38,5.06,1.38,7.3,0c1.08-0.7,1.95-1.69,2.51-2.85c1.2-2.58,1.2-5.56,0-8.13V93z"/>
	<path class="st0" d="M341.2,86.93c0.24,0.25,0.37,0.59,0.36,0.94v18.23c0.01,0.39-0.14,0.77-0.41,1.05
		c-0.27,0.28-0.64,0.43-1.03,0.42c-0.22,0-0.44-0.03-0.65-0.1c-0.19-0.06-0.36-0.17-0.49-0.32l-11.8-15.37v14.47
		c0.02,0.71-0.54,1.3-1.25,1.32c-0.02,0-0.04,0-0.07,0c-0.35,0.01-0.69-0.12-0.93-0.38c-0.24-0.25-0.37-0.59-0.36-0.94V87.99
		c-0.01-0.39,0.13-0.76,0.4-1.04c0.27-0.27,0.63-0.41,1-0.4c0.24,0,0.47,0.05,0.69,0.14c0.2,0.07,0.38,0.21,0.51,0.38l11.77,15.4
		V87.89c-0.02-0.71,0.54-1.3,1.25-1.32c0.02,0,0.04,0,0.07,0C340.61,86.55,340.95,86.68,341.2,86.93z"/>
	<path class="st0" d="M381.5,96.94c0.27,0.27,0.42,0.64,0.41,1.02v6.76c0.01,0.52-0.27,1.01-0.72,1.26
		c-1.92,1.23-4.15,1.89-6.42,1.89c-1.93,0.02-3.83-0.47-5.51-1.42c-5.17-2.97-6.96-9.57-3.99-14.75c0.95-1.66,2.33-3.03,3.99-3.99
		c1.67-0.97,3.58-1.47,5.51-1.46c0.97,0,1.95,0.11,2.89,0.33c0.88,0.2,1.73,0.53,2.51,0.99c0.22,0.12,0.41,0.3,0.55,0.51
		c0.12,0.2,0.18,0.43,0.18,0.66c0.01,0.38-0.14,0.76-0.41,1.03c-0.24,0.28-0.6,0.44-0.97,0.44c-0.27,0.01-0.55-0.07-0.78-0.21
		c-1.24-0.59-2.59-0.89-3.96-0.9c-2.81-0.03-5.41,1.47-6.77,3.93c-0.69,1.23-1.04,2.61-1.03,4.02c-0.02,1.4,0.34,2.79,1.03,4.01
		c0.67,1.19,1.65,2.19,2.82,2.88c1.19,0.72,2.56,1.1,3.95,1.09c0.72-0.01,1.44-0.09,2.15-0.24c0.67-0.14,1.32-0.35,1.94-0.63v-4.81
		h-3.64c-0.38,0.01-0.75-0.14-1.02-0.41c-0.28-0.26-0.43-0.63-0.42-1c-0.01-0.39,0.14-0.77,0.42-1.04c0.27-0.27,0.64-0.41,1.02-0.4
		h5.28C380.88,96.5,381.24,96.66,381.5,96.94z"/>
	<path class="st0" d="M407.51,105.69c0.12,0.2,0.18,0.42,0.18,0.65c0.03,0.36-0.13,0.7-0.4,0.93c-0.28,0.21-0.63,0.31-0.98,0.3
		c-0.34,0.01-0.67-0.07-0.96-0.24c-0.64-0.38-1.16-0.96-1.47-1.64c-0.43-1.07-0.62-2.22-0.55-3.36c0.07-0.84-0.27-1.67-0.9-2.22
		c-0.67-0.5-1.5-0.76-2.34-0.72H394v6.75c0.01,0.38-0.11,0.75-0.36,1.04c-0.23,0.27-0.57,0.41-0.93,0.4
		c-0.43,0.01-0.86-0.14-1.19-0.42c-0.31-0.25-0.49-0.62-0.49-1.02V87.99c0-0.79,0.64-1.44,1.43-1.44h0.01h8.43
		c1.05-0.01,2.07,0.27,2.97,0.8c0.91,0.53,1.66,1.28,2.18,2.18c0.55,0.95,0.82,2.04,0.81,3.14c0,1.11-0.31,2.2-0.9,3.14
		c-0.55,0.93-1.35,1.68-2.31,2.18c0.72,0.36,1.32,0.91,1.75,1.59c0.44,0.72,0.69,1.53,0.71,2.37c0.03,0.78,0.12,1.56,0.27,2.33
		c0.08,0.38,0.32,0.7,0.66,0.88C407.24,105.31,407.4,105.49,407.51,105.69z M402.27,96.28c0.47-0.39,0.85-0.89,1.09-1.46
		c0.29-0.65,0.43-1.35,0.42-2.05c0.02-0.9-0.29-1.77-0.88-2.45c-0.53-0.64-1.32-1.01-2.15-1H394v7.57h6.85
		C401.37,96.83,401.87,96.62,402.27,96.28L402.27,96.28z"/>
	<path class="st0" d="M434.04,102.56c-0.83,1.6-2.08,2.94-3.61,3.89c-3.22,1.9-7.22,1.9-10.45,0c-1.54-0.94-2.79-2.29-3.62-3.89
		c-1.74-3.46-1.74-7.53,0-10.99c0.83-1.6,2.08-2.95,3.62-3.89c3.22-1.9,7.22-1.9,10.45,0c1.53,0.95,2.78,2.29,3.61,3.89
		C435.78,95.02,435.78,99.1,434.04,102.56z M431.35,93c-0.56-1.16-1.42-2.15-2.51-2.85c-2.24-1.37-5.06-1.37-7.3,0
		c-1.08,0.69-1.95,1.67-2.51,2.83c-0.62,1.28-0.92,2.68-0.9,4.1c-0.02,1.41,0.29,2.8,0.9,4.07c0.56,1.16,1.42,2.15,2.51,2.85
		c2.24,1.38,5.06,1.38,7.3,0c1.08-0.7,1.95-1.69,2.51-2.85c1.2-2.58,1.2-5.56,0-8.13V93z"/>
	<path class="st0" d="M460.13,86.93c0.25,0.28,0.39,0.66,0.37,1.04V99.5c0.02,1.49-0.34,2.96-1.05,4.26
		c-0.67,1.23-1.68,2.26-2.9,2.95c-1.26,0.73-2.7,1.11-4.15,1.09c-1.47,0.02-2.92-0.36-4.2-1.09c-1.23-0.69-2.24-1.72-2.91-2.95
		c-0.71-1.31-1.07-2.78-1.05-4.26V87.97c-0.01-0.39,0.14-0.77,0.42-1.04c0.29-0.28,0.69-0.42,1.09-0.4c0.38,0,0.74,0.15,1,0.42
		c0.28,0.26,0.44,0.63,0.43,1.02V99.5c-0.01,0.98,0.24,1.95,0.73,2.81c0.45,0.81,1.12,1.47,1.92,1.94c0.79,0.45,1.68,0.69,2.59,0.69
		c0.92,0.01,1.84-0.22,2.65-0.66c0.82-0.46,1.49-1.13,1.97-1.94c0.5-0.85,0.75-1.82,0.74-2.81V87.97c-0.02-0.38,0.11-0.75,0.36-1.04
		c0.25-0.28,0.62-0.42,0.99-0.4C459.5,86.51,459.87,86.65,460.13,86.93z"/>
	<path class="st0" d="M481.94,87.41c0.91,0.58,1.65,1.38,2.15,2.33c0.53,1,0.8,2.11,0.79,3.24c0.01,1.14-0.26,2.27-0.79,3.28
		c-0.5,0.96-1.24,1.78-2.15,2.37c-0.87,0.57-1.9,0.88-2.94,0.87h-5.64v6.63c0.01,0.38-0.13,0.74-0.39,1.02c-0.55,0.55-1.44,0.55-2,0
		c-0.25-0.28-0.39-0.66-0.37-1.04V87.99c-0.01-0.79,0.62-1.43,1.41-1.44c0.01,0,0.02,0,0.03,0h6.97
		C480.04,86.55,481.06,86.85,481.94,87.41z M480.5,96.24c0.47-0.37,0.85-0.85,1.09-1.4c0.27-0.58,0.41-1.22,0.4-1.86
		c0.03-0.94-0.29-1.87-0.88-2.6c-0.5-0.67-1.28-1.06-2.12-1.06h-5.64v7.45h5.64C479.54,96.76,480.07,96.58,480.5,96.24z"/>
	<path class="st2" d="M62.21,19.13c-23.79,0-43.08,19.29-43.08,43.08s19.29,43.08,43.08,43.08S105.29,86,105.29,62.21
		S86,19.13,62.21,19.13z M73.29,69.66c0,10.2-8.27,18.46-18.46,18.46c-10.2,0-18.46-8.27-18.46-18.46c0-2.04,1.65-3.69,3.69-3.69
		c2.04,0,3.69,1.65,3.69,3.69c0.12,6.12,5.18,10.98,11.3,10.86C61,80.4,65.79,75.61,65.91,69.66V54.78
		c0.07-2.04,1.78-3.64,3.82-3.57c1.94,0.07,3.5,1.63,3.57,3.57L73.29,69.66L73.29,69.66z M84.36,58.45L84.36,58.45
		c-2.04,0.01-3.69-1.64-3.69-3.67v-0.01c0.12-6.12-4.74-11.18-10.86-11.3s-11.18,4.74-11.3,10.86c0,0.15,0,0.29,0,0.44v14.9
		c0,2.04-1.65,3.69-3.69,3.69c-2.04,0-3.69-1.65-3.69-3.69V54.78c0.16-10.2,8.55-18.34,18.74-18.18c9.98,0.15,18.03,8.2,18.18,18.18
		C88.05,56.81,86.4,58.45,84.36,58.45z"/>
	<g>
		<path class="st3" d="M54.82,88.12c10.2,0,18.46-8.27,18.46-18.46V54.78c-0.07-1.94-1.63-3.5-3.57-3.57
			c-2.04-0.07-3.75,1.53-3.82,3.57v14.88c-0.12,5.95-4.91,10.74-10.86,10.86c-6.12,0.12-11.18-4.74-11.3-10.86
			c0-2.04-1.65-3.69-3.69-3.69c-2.04,0-3.69,1.65-3.69,3.69C36.36,79.86,44.63,88.12,54.82,88.12z"/>
		<path class="st3" d="M69.88,36.6c-10.2-0.16-18.59,7.98-18.74,18.18v14.89c0,2.04,1.65,3.69,3.69,3.69c2.04,0,3.69-1.65,3.69-3.69
			v-14.9c0-0.15,0-0.29,0-0.44c0.12-6.12,5.18-10.98,11.3-10.86s10.98,5.18,10.86,11.3v0.01c0,2.04,1.66,3.69,3.69,3.68v-0.01
			c2.03,0,3.68-1.64,3.69-3.67C87.9,44.8,79.85,36.75,69.88,36.6z"/>
	</g>
</g>
</svg>
